<?xml version="1.0" standalone="no"?>
<!DOCTYPE svg PUBLIC "-//W3C//DTD SVG 20010904//EN"
 "http://www.w3.org/TR/2001/REC-SVG-20010904/DTD/svg10.dtd">
<svg version="1.0" xmlns="http://www.w3.org/2000/svg"
 width="150.000000pt" height="150.000000pt" viewBox="0 0 150.000000 150.000000"
 preserveAspectRatio="xMidYMid meet">
<metadata>
Created by potrace 1.16, written by Peter Selinger 2001-2019
</metadata>
<g transform="translate(0.000000,150.000000) scale(0.100000,-0.100000)"
fill="#000000" stroke="none">
<path d="M411 970 l63 -70 194 0 194 0 29 -29 c32 -32 38 -73 19 -128 -16 -44
-49 -57 -146 -58 -46 0 -84 -2 -84 -5 0 -3 61 -71 135 -152 l136 -148 49 0 50
0 0 48 c0 44 -4 51 -54 101 l-54 53 35 31 c52 46 76 101 77 177 1 79 -22 145
-67 188 -58 57 -91 62 -379 62 l-259 0 62 -70z"/>
</g>
</svg>
